<svg id="Capa_1" enable-background="new 0 0 512 512" height="512" viewBox="0 0 512 512" width="512" xmlns="http://www.w3.org/2000/svg"><g><g><path d="m211 47.5v-30c0-5.523 4.477-10 10-10h10c13.807 0 25 11.193 25 25v5z" fill="#615260"/><path d="m301 47.5v-30c0-5.523-4.477-10-10-10h-10c-13.807 0-25 11.193-25 25v5z" fill="#615260"/><path d="m212.5 340v52.5h-55c-44.183 0-80 35.817-80 80v12c0 11.046 8.954 20 20 20h317c11.046 0 20-8.954 20-20v-12c0-44.183-35.817-80-80-80h-55v-52.625z" fill="#ecbd83"/><path d="m139.412 254.712c7.239 57.95 56.677 102.788 116.588 102.788 60.045 0 109.571-45.039 116.636-103.178v-138.189l-233.224.013z" fill="#f6d190"/><path d="m372.64 116.13v138.19c-3.54 29.07-17.68 54.86-38.45 73.39s-48.17 29.79-78.19 29.79c-5.08 0-10.08-.32-14.99-.96 24.1-3.06 45.93-13.44 63.18-28.83 20.77-18.53 34.91-44.32 38.45-73.39v-138.19z" fill="#ecbd83"/><path d="m123.5 198.5v-61c0-55.228 44.772-100 100-100h65c55.228 0 100 44.772 100 100v61l-45 8.908v-38.908c0-5.523-4.477-10-10-10h-49.576c-5.116 0-10.064-1.819-13.962-5.132l-7.486-6.363c-3.734-3.174-9.219-3.174-12.953 0l-7.486 6.363c-3.898 3.313-8.847 5.132-13.962 5.132h-49.575c-5.523 0-10 4.477-10 10v35.697z" fill="#736572"/><path d="m388.5 137.5v61l-30 5.94v-66.94c0-55.23-44.77-100-100-100h30c55.23 0 100 44.77 100 100z" fill="#615260"/><path d="m434.5 472.5v12c0 11.05-8.95 20-20 20h-317c-11.05 0-20-8.95-20-20v-12c0-44.18 35.82-80 80-80h55v18c0 13.81 11.19 25 25 25h37c13.81 0 25-11.19 25-25v-18h55c44.18 0 80 35.82 80 80z" fill="#00ddf9"/><path d="m434.5 472.5v12c0 11.05-8.95 20-20 20h-30c11.05 0 20-8.95 20-20v-12c0-44.18-35.82-80-80-80h30c44.18 0 80 35.82 80 80z" fill="#00c7f8"/><path d="m329 392.5v22c0 27.614-22.386 50-50 50h-46c-27.614 0-50-22.386-50-50v-22h29.5v18c0 13.807 11.193 25 25 25h37c13.807 0 25-11.193 25-25v-18z" fill="#fff"/><path d="m133.5 259.5h245c5.523 0 10-4.477 10-10v-51c0-5.523-4.477-10-10-10h-245c-5.523 0-10 4.477-10 10v51c0 5.523 4.477 10 10 10z" fill="#fcf1f2"/><path d="m388.5 198.5v51c0 5.52-4.48 10-10 10h-30c5.52 0 10-4.48 10-10v-51c0-5.52-4.48-10-10-10h30c5.52 0 10 4.48 10 10z" fill="#f4e5e0"/></g><g><path d="m298.321 282.531c-2.667-3.17-7.398-3.577-10.567-.91-18.784 15.805-44.888 15.813-63.481.022-3.158-2.681-7.891-2.294-10.572.862-2.681 3.157-2.295 7.89.862 10.572 12.148 10.317 26.74 15.474 41.362 15.474 14.607 0 29.245-5.151 41.487-15.452 3.169-2.668 3.576-7.399.909-10.568z"/><path d="m354.5 385h-47.5v-30.829c35.388-15.787 62.378-47.601 71.069-87.171h.431c6.963 0 12.972-4.098 15.787-10h4.213c6.893 0 12.5-5.607 12.5-12.5v-41c0-6.893-5.607-12.5-12.5-12.5h-2.5v-53.5c0-52.443-37.749-96.227-87.5-105.627v-14.373c0-9.649-7.851-17.5-17.5-17.5h-10c-10.042 0-19.034 4.58-25 11.759-5.966-7.179-14.958-11.759-25-11.759h-10c-9.649 0-17.5 7.851-17.5 17.5v14.373c-49.751 9.4-87.5 53.184-87.5 105.627 0 4.142 3.358 7.5 7.5 7.5s7.5-3.358 7.5-7.5c0-51.005 41.495-92.5 92.5-92.5h65c51.005 0 92.5 41.495 92.5 92.5v43.7c-.819-.118-1.649-.2-2.5-.2h-27.5v-12.5c0-9.649-7.851-17.5-17.5-17.5h-49.576c-3.333 0-6.566-1.188-9.105-3.347l-7.486-6.363c-6.567-5.581-16.1-5.581-22.667 0l-7.486 6.364c-2.538 2.158-5.771 3.346-9.104 3.346h-49.576c-9.649 0-17.5 7.851-17.5 17.5v12.5h-27.5c-.851 0-1.681.082-2.5.2v-8.7c0-4.142-3.358-7.5-7.5-7.5s-7.5 3.358-7.5 7.5v18.5h-2.5c-6.893 0-12.5 5.607-12.5 12.5v41c0 6.893 5.607 12.5 12.5 12.5h4.213c2.816 5.902 8.824 10 15.787 10h.432c8.691 39.554 35.691 71.367 71.068 87.16v30.84h-47.5c-48.248 0-87.5 39.252-87.5 87.5v12c0 15.164 12.336 27.5 27.5 27.5h270c4.142 0 7.5-3.358 7.5-7.5s-3.358-7.5-7.5-7.5h-270c-6.893 0-12.5-5.607-12.5-12.5v-12c0-39.977 32.523-72.5 72.5-72.5h18v14.5c0 31.706 25.794 57.5 57.5 57.5h46c31.706 0 57.5-25.794 57.5-57.5v-14.5h18c39.977 0 72.5 32.523 72.5 72.5v12c0 6.893-5.607 12.5-12.5 12.5h-12c-4.142 0-7.5 3.358-7.5 7.5s3.358 7.5 7.5 7.5h12c15.164 0 27.5-12.336 27.5-27.5v-12c0-48.248-39.252-87.5-87.5-87.5zm-136-354.88v-12.62c0-1.378 1.122-2.5 2.5-2.5h10c8.798 0 16.081 6.534 17.3 15 0 0-28.142.044-29.8.12zm45.2-.12c1.22-8.466 8.502-15 17.3-15h10c1.378 0 2.5 1.122 2.5 2.5v12.62c-1.658-.076-29.8-.12-29.8-.12zm-87.7 138.5c0-1.378 1.122-2.5 2.5-2.5h49.576c6.889 0 13.572-2.457 18.819-6.918l7.485-6.362c.938-.798 2.301-.797 3.239 0l7.485 6.363c5.248 4.461 11.932 6.918 18.82 6.918h49.576c1.378 0 2.5 1.122 2.5 2.5v12.499h-160zm-45 81v-51c0-1.378 1.122-2.5 2.5-2.5h245c1.378 0 2.5 1.122 2.5 2.5v51c0 1.378-1.122 2.5-2.5 2.5h-245c-1.378 0-2.5-1.122-2.5-2.5zm18.361 17.5h213.279c-12.194 48.513-55.89 83-106.64 83-50.717 0-94.443-34.498-106.639-83zm106.639 98c12.467 0 24.56-1.836 36-5.264v32.764 18c0 9.649-7.851 17.5-17.5 17.5h-37c-9.649 0-17.5-7.851-17.5-17.5v-18-32.77c11.442 3.432 23.535 5.27 36 5.27zm65.5 49.5c0 23.435-19.065 42.5-42.5 42.5h-46c-23.435 0-42.5-19.065-42.5-42.5v-14.5h14.5v10.5c0 17.92 14.58 32.5 32.5 32.5h37c17.92 0 32.5-14.58 32.5-32.5v-10.5h14.5z"/><path d="m153.5 232h205c4.142 0 7.5-3.358 7.5-7.5s-3.358-7.5-7.5-7.5h-205c-4.142 0-7.5 3.358-7.5 7.5s3.358 7.5 7.5 7.5z"/></g></g></svg>